<svg id="Fill_Outline" height="512" viewBox="0 0 64 64" width="512" xmlns="http://www.w3.org/2000/svg" data-name="Fill Outline"><g id="Stroke_copy_3" data-name="Stroke copy 3"><path d="m15 36h34v6h-34z" fill="#656b76"/><path d="m19 36h26v25h-26z" fill="#d0d8da"/><path d="m26 43h19v-7h-26v25h26v-4h-14a8 8 0 0 1 -8-8v-3a3 3 0 0 1 3-3z" fill="#93999a"/><path d="m32 8a1.16 1.16 0 0 0 -1.15 1l-1.85 12h6l-1.85-12a1.16 1.16 0 0 0 -1.15-1z" fill="#fcbc04"/><path d="m33.91 44.59-1.91-1.59-1.91 1.59a11.37 11.37 0 0 0 -4.09 8.73v7.68h12v-7.68a11.37 11.37 0 0 0 -4.09-8.73z" fill="#f9e109"/><path d="m31 57a8 8 0 0 1 -5-1.76v5.76h12v-4z" fill="#fcbc04"/><path d="m33.91 44.59-1.91-1.59-1.91 1.59-.18.17 1 .83a11.37 11.37 0 0 1 4.09 8.73v6.68h3v-7.68a11.37 11.37 0 0 0 -4.09-8.73z" fill="#fcbc04"/><path d="m35 57h3v4h-3z" fill="#e59730"/><path d="m19 36h26v4h-26z" fill="#4891d3"/><path d="m45 43h16v18h-16z" fill="#d0d8da"/><path d="m61 47v-4h-16v18h16v-4h-2a8 8 0 0 1 -8-8v-2z" fill="#93999a"/><path d="m3 43h16v18h-16z" fill="#d0d8da"/><path d="m3 47v-4h16v18h-16v-4h2a8 8 0 0 0 8-8v-2z" fill="#93999a"/><path d="m3 27h8v16h-8z" fill="#93999a"/><path d="m8 30h3a0 0 0 0 1 0 0v9a0 0 0 0 1 0 0h-1a4 4 0 0 1 -4-4v-3a2 2 0 0 1 2-2z" fill="#d0d8da"/><path d="m32 14a17 17 0 0 1 17 17v5a0 0 0 0 1 0 0h-34a0 0 0 0 1 0 0v-5a17 17 0 0 1 17-17z" fill="#fcbc04"/><path d="m32 14a16.91 16.91 0 0 0 -5 .74 16 16 0 0 0 16 15.26h6a17 17 0 0 0 -17-16z" fill="#f9e109"/><path d="m3 19h8v8h-8z" fill="#4891d3"/><path d="m7 19h4a0 0 0 0 1 0 0v7a0 0 0 0 1 0 0 4 4 0 0 1 -4-4v-3a0 0 0 0 1 0 0z" fill="#57b7eb"/><path d="m7 10-4 9h8z" fill="#fcbc04"/><path d="m11 18.88-4-8.88v4a5 5 0 0 0 4 4.88z" fill="#f9e109"/><path d="m53 27h8v16h-8z" fill="#93999a"/><path d="m58 30h3a0 0 0 0 1 0 0v9a0 0 0 0 1 0 0h-1a4 4 0 0 1 -4-4v-3a2 2 0 0 1 2-2z" fill="#d0d8da"/><path d="m53 19h8v8h-8z" fill="#4891d3"/><path d="m57 19h4a0 0 0 0 1 0 0v7a0 0 0 0 1 0 0 4 4 0 0 1 -4-4v-3a0 0 0 0 1 0 0z" fill="#57b7eb"/><path d="m57 10-4 9h8z" fill="#fcbc04"/><path d="m61 18.88-4-8.88v4a5 5 0 0 0 4 4.88z" fill="#f9e109"/><path d="m49.23 52.64-1.23-1.64-1.23 1.64a8.86 8.86 0 0 0 -1.77 5.36v3h6v-3a8.86 8.86 0 0 0 -1.77-5.36z" fill="#e59730"/><path d="m7.23 52.64-1.23-1.64-1.23 1.64a8.86 8.86 0 0 0 -1.77 5.36v3h6v-3a8.86 8.86 0 0 0 -1.77-5.36z" fill="#fcbc04"/><path d="m5 57a8.06 8.06 0 0 0 3.79-1 8.83 8.83 0 0 0 -1.56-3.41l-1.23-1.59-1.23 1.64a8.87 8.87 0 0 0 -1.71 4.36z" fill="#e59730"/><path d="m59.23 52.64-1.23-1.64-1.23 1.64a8.86 8.86 0 0 0 -1.77 5.36v3h6v-3a8.86 8.86 0 0 0 -1.77-5.36z" fill="#fcbc04"/><path d="m59.23 52.64-1.23-1.64-1.23 1.64a8.83 8.83 0 0 0 -1.56 3.41 8.06 8.06 0 0 0 3.79.95h1.94a8.87 8.87 0 0 0 -1.71-4.36z" fill="#e59730"/><path d="m17.23 52.64-1.23-1.64-1.23 1.64a8.86 8.86 0 0 0 -1.77 5.36v3h6v-3a8.86 8.86 0 0 0 -1.77-5.36z" fill="#e59730"/><path d="m45 43h16v4h-16z" fill="#4891d3"/><path d="m3 43h16v4h-16z" fill="#4891d3"/><path d="m33.72 12.71-.57-3.71a1.16 1.16 0 0 0 -1.15-1v2a3 3 0 0 0 1.72 2.71z" fill="#f9e109"/></g><path d="m61 28a1 1 0 0 0 1-1v-8s0 0 0 0a1 1 0 0 0 -.06-.33 0 0 0 0 1 0 0l-3.94-8.88v-3.79a1 1 0 0 0 -2 0v3.79l-3.91 8.8a0 0 0 0 1 0 0 1 1 0 0 0 -.09.41s0 0 0 0v23h-2v-6a1 1 0 0 0 -1-1h-33v-4a16 16 0 0 1 32 0 1 1 0 0 0 2 0 18 18 0 0 0 -15.18-17.76l-.66-4.31a4 4 0 0 0 1.67-1 1 1 0 0 0 0-1.41 1 1 0 0 0 -1.42 0 2 2 0 0 1 -2.82 0 2 2 0 0 1 -.59-1.4 2 2 0 0 1 .59-1.41 1 1 0 1 0 -1.42-1.42 4 4 0 0 0 0 5.66 2.2 2.2 0 0 0 -.34.87l-.68 4.4a18 18 0 0 0 -15.15 17.78v11h-10v-14h6v11a1 1 0 0 0 2 0v-20s0 0 0 0a1 1 0 0 0 -.06-.33 0 0 0 0 1 0 0l-3.94-8.88v-3.79a1 1 0 0 0 -2 0v3.79l-3.91 8.8a0 0 0 0 1 0 0 1 1 0 0 0 -.09.41s0 0 0 0v42a1 1 0 0 0 1 1h23a1 1 0 0 0 1-1v-7.68a10.35 10.35 0 0 1 3.73-8l1.27-1.02 1.27 1.06a10.35 10.35 0 0 1 3.73 8v7.64a1 1 0 0 0 1 1h23a1 1 0 0 0 1-1v-30a1 1 0 0 0 -2 0v11h-6v-14zm-29.16-18.86a.17.17 0 0 1 .32 0l.6 3.9c-.25 0-.5 0-.76 0s-.51 0-.76 0zm22.16 10.86h2v6h-2zm6 6h-2v-6h2zm-3-13.54 2.46 5.54h-4.92zm-3 33.54v-2h2v2zm-2-2v2h-2v-2zm-6 2v-2h2v2zm2-4h-2v-5h2zm-4-3h-3v-2h3zm-7 0v-2h2v2zm-4 0v-2h2v2zm-4 0v-2h2v2zm-4 0v-2h2v2zm-2-2v2h-3v-2zm-11 9v-2h2v2zm-4 0v-2h2v2zm-4 0v-2h2v2zm12-2h2v2h-2zm2-2h-2v-5h2zm-14-22h2v6h-2zm6 0v6h-2v-6zm-3-7.54 2.46 5.54h-4.92zm-3 35.54h14v4l-1.2-1.6a1 1 0 0 0 -1.6 0l-1.2 1.6a10 10 0 0 0 -2 6v2h-2v-2a10 10 0 0 0 -2-6l-1.2-1.6a1 1 0 0 0 -1.6 1.2l1.23 1.63a8 8 0 0 1 1.57 4.77v2h-4zm10 10a8 8 0 0 1 1.57-4.73l.43-.56.43.56a8 8 0 0 1 1.57 4.73v2h-4zm20.55-14.17-1.91-1.6a1 1 0 0 0 -1.28 0l-1.91 1.6a12.3 12.3 0 0 0 -4.45 9.49v6.68h-5v-19h24v19h-5v-6.68a12.3 12.3 0 0 0 -4.45-9.49zm11.45 16.17v-2a8 8 0 0 1 1.57-4.73l.43-.56.43.56a8 8 0 0 1 1.57 4.73v2zm10 0v-2a8 8 0 0 1 1.57-4.73l1.23-1.67a1 1 0 0 0 -1.6-1.2l-1.2 1.6a10 10 0 0 0 -2 6v2h-2v-2a10 10 0 0 0 -2-6l-1.2-1.6a1 1 0 0 0 -1.6 0l-1.2 1.6v-4h14v12zm4-14h-2v-2h2z" fill="#323232"/></svg>